Coordinates
version=1
nRows=14
nColumns=36
inDegrees=yes

Units are S.I. units (second, meters, Newtons, ...)
If the header above contains a line with 'inDegrees', this indicates whether rotational values are in degrees (yes) or radians (no).

endheader
time	pelvis_tilt	pelvis_list	pelvis_rotation	pelvis_tx	pelvis_ty	pelvis_tz	hip_flexion_r	hip_adduction_r	hip_rotation_r	knee_angle_r	knee_angle_r_beta	ankle_angle_r	subtalar_angle_r	mtp_angle_r	hip_flexion_l	hip_adduction_l	hip_rotation_l	knee_angle_l	knee_angle_l_beta	ankle_angle_l	subtalar_angle_l	mtp_angle_l	lumbar_extension	lumbar_bending	lumbar_rotation	arm_flex_r	arm_add_r	arm_rot_r	elbow_flex_r	pro_sup_r	arm_flex_l	arm_add_l	arm_rot_l	elbow_flex_l	pro_sup_l
      3.34000000	    -11.76778052	      1.99351544	     -2.13006702	     -0.44919369	      0.76214032	     -0.61271318	     74.53184659	     -2.06679910	      6.82059711	     86.14854163	      1.50357570	     25.38804455	    -12.61055355	     -7.49999987	     71.96640493	     -4.48092161	     -1.35956233	     86.39719208	      1.50791547	     32.51440530	     -8.46513279	     -7.49999987	    -26.98623958	     -2.01089497	      3.18910024	      1.03554251	    -27.03762045	     11.48881703	     60.30762814	     92.74134716	      6.01064160	    -21.80297023	     19.22423121	     51.50717333	     91.44498260
      3.35000000	    -11.72351422	      2.00430368	     -2.15195358	     -0.44393894	      0.77047969	     -0.61141274	     73.20256297	     -2.02088845	      6.79674336	     84.91962600	      1.48212707	     25.41525333	    -12.55353128	     -7.49999987	     70.58686129	     -4.42787300	     -1.43900311	     85.03490373	      1.48413905	     32.58089896	     -8.47030109	     -7.49999987	    -26.34051021	     -2.01643995	      3.13677634	      1.10110275	    -26.16074621	     11.35227409	     58.59864172	     92.02329441	      5.91826170	    -21.23550356	     18.90156046	     50.09598125	     90.79303380
      3.36000000	    -11.66044189	      1.92067252	     -2.15321766	     -0.43897675	      0.77852763	     -0.61135686	     71.86482332	     -1.96132753	      6.69170143	     83.68383391	      1.46055843	     25.35512163	    -12.57548468	     -7.49999987	     69.24037264	     -4.36739091	     -1.40656516	     83.71011337	      1.46101710	     32.49011106	     -8.63798380	     -7.49999987	    -25.74195292	     -1.88178167	      3.05437206	      1.16069705	    -25.51978068	     11.59252338	     57.19255297	     91.75175632	      5.79472972	    -20.90483805	     19.19959248	     48.91657793	     90.68526226
      3.37000000	    -11.31810781	      1.88309307	     -2.20774451	     -0.43362284	      0.78712087	     -0.61192178	     70.22330859	     -1.90416562	      6.65509688	     82.40969322	      1.43832048	     25.30679424	    -12.55731194	     -7.49999987	     67.55664916	     -4.32813110	     -1.46737402	     82.34194976	      1.43713814	     32.35091114	     -8.85769831	     -7.49999987	    -25.52030896	     -1.82635250	      2.98843304	      1.09674928	    -24.79303508	     11.25490182	     55.93007783	     90.94871151	      5.56454986	    -20.34855472	     18.70491505	     47.90926170	     89.93790411
      3.38000000	    -11.13787581	      1.81424457	     -2.20262278	     -0.42899553	      0.79550479	     -0.61244134	     68.75987057	     -1.89198697	      6.56451870	     81.11287747	      1.41568678	     25.21325423	    -12.52114320	     -7.49999987	     66.09241827	     -4.23779807	     -1.46488357	     80.98022677	      1.41337159	     32.17462498	     -9.05996726	     -7.49999987	    -25.01597559	     -1.68967410	      2.84465165	      1.06648936	    -24.16898632	     11.25826015	     54.58753940	     90.51984748	      5.46309184	    -19.89622843	     18.84486113	     46.63487545	     89.61214914
      3.39000000	    -10.92716203	      1.77918538	     -2.27445743	     -0.42544223	      0.80405618	     -0.61251482	     67.29039791	     -1.81801185	      6.53790591	     79.77771105	      1.39238373	     25.13292685	    -12.51090158	     -7.49999987	     64.60923224	     -4.21485736	     -1.53152204	     79.61324546	      1.38951326	     31.94135423	     -9.23568227	     -7.49999987	    -24.58011767	     -1.64493195	      2.78153387	      0.93176237	    -23.58936649	     11.10338734	     53.48839374	     89.76184787	      5.29212015	    -19.46721249	     18.65313516	     45.72549436	     88.92152979
      3.40000000	    -11.09850679	      1.72043289	     -2.24136859	     -0.42168759	      0.81204905	     -0.61270516	     66.26873577	     -1.81795663	      6.45450333	     78.46833769	      1.36953085	     25.00631344	    -12.41745648	     -7.49999987	     63.62236083	     -4.11718949	     -1.49789406	     78.29347019	      1.36647884	     31.80953819	     -9.25696128	     -7.49999987	    -23.75029804	     -1.47256758	      2.62865753	      0.23491757	    -23.31562006	     10.97616477	     53.77378556	     89.07353732	      4.57231033	    -19.35155173	     18.41947438	     46.15772826	     88.24808501
      3.41000000	    -10.68543158	      1.70784269	     -2.27351214	     -0.41766856	      0.82213536	     -0.61275247	     64.54108243	     -1.86487990	      6.40194388	     76.97529540	      1.34347235	     24.64693471	    -12.48558124	     -7.49999987	     61.91141772	     -4.03584625	     -1.60027147	     76.77556014	      1.33998631	     31.35371020	     -9.53371372	     -7.49999987	    -23.24624880	     -1.46145332	      2.63696962	      0.69828150	    -22.73991088	     11.49281068	     51.05045973	     89.54282062	      5.14643213	    -18.83850230	     19.33386121	     43.59643666	     89.04293353
      3.42000000	    -10.34049721	      1.63243566	     -2.27167368	     -0.41519668	      0.83229269	     -0.61310826	     62.91801455	     -1.90262282	      6.28377675	     75.43726989	      1.31662874	     24.39690667	    -12.37332938	     -7.49999987	     60.36732274	     -3.97220612	     -1.60820153	     75.25927347	      1.31352211	     30.96580800	     -9.59873139	     -7.49999987	    -23.05376513	     -1.34823893	      2.68971932	      0.40036854	    -22.15606740	     10.40193560	     50.28624389	     91.76457626	      5.17990356	    -18.33982878	     18.63715813	     42.77006234	     91.62829550
      3.43000000	    -10.18260363	      1.59125861	     -2.25235983	     -0.41440385	      0.84211598	     -0.61429241	     61.52291664	     -1.99288747	      6.16369994	     73.83530340	      1.28866915	     24.04892397	    -12.21909385	     -7.49999987	     59.02781167	     -3.85726993	     -1.62396744	     73.67016706	      1.28578698	     30.48671710	     -9.69432998	     -7.49999987	    -22.66400687	     -1.24326594	      2.46623349	      0.60981920	    -21.78153697	     10.71745950	     49.07997465	     90.72866416	      5.24334106	    -18.04439844	     18.56159416	     41.95158763	     90.68976403
      3.44000000	    -10.47715971	      1.57670865	     -2.25748536	     -0.41317795	      0.85058597	     -0.61523071	     60.66271405	     -2.06129547	      6.06362031	     72.26499245	      1.26126205	     23.78194748	    -11.94392102	     -7.49999987	     58.18889746	     -3.78386659	     -1.70076169	     72.11660275	      1.25867216	     30.17417982	     -9.55219895	     -7.49999987	    -21.84122625	     -1.14960982	      2.34488892	      0.26215869	    -21.62112133	     10.71591277	     48.97807791	     90.61989417	      5.00121212	    -17.92396381	     18.55868479	     41.90777519	     90.58847962
      3.45000000	     -9.70169019	      1.57016986	     -2.26573446	     -0.41023509	      0.86076608	     -0.61467604	     58.55143845	     -2.13993370	      6.03711849	     70.53673762	      1.23109832	     23.23037016	    -12.05386268	     -7.49999987	     56.07004551	     -3.57979634	     -1.73274128	     70.31875842	      1.22729386	     29.32014374	    -10.15032937	     -7.49999987	    -22.12739535	     -1.13699685	      2.13811787	      0.72430674	    -21.02827965	     10.28889054	     47.41688231	     90.04350016	      5.52615588	    -17.43913958	     18.10655510	     40.47472209	     90.06445092
      3.46000000	     -9.48994983	      1.55039204	     -2.29345261	     -0.40564233	      0.86911082	     -0.61332929	     57.08559822	     -2.17243639	      5.97668047	     68.90129366	      1.20255443	     22.89328375	    -11.89305769	     -7.49999987	     54.61375336	     -3.49422568	     -1.82028023	     68.65493235	      1.19825462	     28.83754908	    -10.18994093	     -7.49999987	    -21.63065333	     -1.13696199	      2.01903194	      0.74083173	    -20.64709275	     10.25897324	     46.34881809	     89.46847863	      5.62310536	    -17.11591148	     17.91427712	     39.48852227	     89.55679669
      3.47000000	     -9.30894263	      1.47093654	     -2.32790534	     -0.40019639	      0.87679797	     -0.61295148	     55.63030924	     -2.17142796	      5.85613987	     67.26302179	      1.17396120	     22.54930633	    -11.76732794	     -7.49999987	     53.17684462	     -3.46271325	     -1.88791917	     67.00514429	      1.16946038	     28.29989391	    -10.24870508	     -7.49999987	    -21.00013124	     -1.03530160	      1.88277271	      0.66456617	    -20.34766358	     10.51488576	     45.44035795	     88.50351236	      5.52875344	    -16.84809207	     17.94497594	     38.61048578	     88.72490489
